<?xml version="1.0" encoding="utf-8"?>
<svg viewBox="96.375 135.078 138.906 37.234" width="138.906" height="37.234" xmlns="http://www.w3.org/2000/svg">
  <path d="M 108.589 160.46 L 108.589 163.21 L 97.429 158.03 L 97.429 155.99 L 108.589 150.82 L 108.589 153.57 L 100.939 156.75 L 99.779 157 L 99.779 157.08 L 100.939 157.34 L 108.589 160.46 ZM 130.416 164.67 L 123.266 164.67 L 123.266 162.95 L 125.486 162.56 L 125.486 146.8 L 120.976 146.8 L 120.586 149.56 L 118.556 149.56 L 118.556 144.76 L 135.106 144.76 L 135.106 149.56 L 133.106 149.56 L 132.696 146.8 L 128.186 146.8 L 128.186 162.56 L 130.416 162.95 L 130.416 164.67 ZM 142.709 164.96 C 141.343 164.96 140.153 164.647 139.139 164.02 C 138.133 163.393 137.353 162.527 136.799 161.42 C 136.246 160.307 135.969 159.02 135.969 157.56 L 135.969 156.96 C 135.969 155.553 136.259 154.297 136.839 153.19 C 137.419 152.083 138.189 151.21 139.149 150.57 C 140.109 149.923 141.159 149.6 142.299 149.6 C 143.633 149.6 144.746 149.873 145.639 150.42 C 146.539 150.967 147.216 151.737 147.669 152.73 C 148.129 153.717 148.359 154.88 148.359 156.22 L 148.359 157.9 L 138.759 157.9 L 138.719 157.97 C 138.739 158.917 138.906 159.757 139.219 160.49 C 139.533 161.223 139.986 161.8 140.579 162.22 C 141.173 162.64 141.883 162.85 142.709 162.85 C 143.623 162.85 144.423 162.72 145.109 162.46 C 145.796 162.2 146.393 161.843 146.899 161.39 L 147.949 163.14 C 147.423 163.647 146.723 164.077 145.849 164.43 C 144.976 164.783 143.929 164.96 142.709 164.96 Z M 138.819 155.73 L 138.839 155.8 L 145.669 155.8 L 145.669 155.44 C 145.669 154.733 145.543 154.097 145.289 153.53 C 145.036 152.97 144.663 152.53 144.169 152.21 C 143.669 151.883 143.046 151.72 142.299 151.72 C 141.699 151.72 141.153 151.897 140.659 152.25 C 140.166 152.603 139.759 153.08 139.439 153.68 C 139.126 154.28 138.919 154.963 138.819 155.73 ZM 157.593 164.67 L 150.443 164.67 L 150.443 162.95 L 152.673 162.56 L 152.673 152 L 150.443 151.61 L 150.443 149.88 L 155.083 149.88 L 155.273 152.08 C 155.767 151.293 156.383 150.683 157.123 150.25 C 157.863 149.817 158.71 149.6 159.663 149.6 C 161.257 149.6 162.49 150.067 163.363 151 C 164.237 151.94 164.673 153.383 164.673 155.33 L 164.673 162.56 L 166.903 162.95 L 166.903 164.67 L 159.753 164.67 L 159.753 162.95 L 161.983 162.56 L 161.983 155.39 C 161.983 154.083 161.727 153.157 161.213 152.61 C 160.7 152.063 159.913 151.79 158.853 151.79 C 158.08 151.79 157.393 151.977 156.793 152.35 C 156.2 152.723 155.723 153.233 155.363 153.88 L 155.363 162.56 L 157.593 162.95 L 157.593 164.67 ZM 174.472 164.96 C 173.272 164.96 172.242 164.66 171.382 164.06 C 170.516 163.467 169.856 162.637 169.402 161.57 C 168.949 160.503 168.722 159.257 168.722 157.83 L 168.722 157.55 C 168.722 155.963 168.949 154.573 169.402 153.38 C 169.856 152.187 170.516 151.257 171.382 150.59 C 172.249 149.93 173.289 149.6 174.502 149.6 C 175.376 149.6 176.149 149.763 176.822 150.09 C 177.489 150.41 178.059 150.877 178.532 151.49 L 178.532 145.46 L 176.302 145.08 L 176.302 143.34 L 178.532 143.34 L 181.232 143.34 L 181.232 162.56 L 183.452 162.95 L 183.452 164.67 L 178.892 164.67 L 178.672 162.91 C 178.186 163.583 177.596 164.093 176.902 164.44 C 176.202 164.787 175.392 164.96 174.472 164.96 Z M 175.162 162.77 C 175.962 162.77 176.636 162.587 177.182 162.22 C 177.729 161.86 178.179 161.347 178.532 160.68 L 178.532 153.81 C 178.186 153.19 177.736 152.7 177.182 152.34 C 176.629 151.973 175.962 151.79 175.182 151.79 C 174.329 151.79 173.622 152.033 173.062 152.52 C 172.509 153.007 172.096 153.683 171.822 154.55 C 171.549 155.41 171.412 156.41 171.412 157.55 L 171.412 157.83 C 171.412 159.317 171.719 160.513 172.332 161.42 C 172.939 162.32 173.882 162.77 175.162 162.77 ZM 192.43 164.67 L 185.28 164.67 L 185.28 162.95 L 187.51 162.56 L 187.51 152 L 185.28 151.61 L 185.28 149.88 L 189.92 149.88 L 190.15 151.76 L 190.18 152.02 C 190.6 151.267 191.116 150.677 191.73 150.25 C 192.343 149.817 193.046 149.6 193.84 149.6 C 194.126 149.6 194.416 149.627 194.71 149.68 C 195.01 149.727 195.223 149.773 195.35 149.82 L 194.99 152.32 L 193.12 152.21 C 192.406 152.17 191.81 152.333 191.33 152.7 C 190.843 153.067 190.47 153.56 190.21 154.18 L 190.21 162.56 L 192.43 162.95 L 192.43 164.67 ZM 204.042 164.67 L 196.892 164.67 L 196.892 162.95 L 199.112 162.56 L 199.112 152 L 196.892 151.61 L 196.892 149.88 L 201.812 149.88 L 201.812 162.56 L 204.042 162.95 L 204.042 164.67 Z M 201.812 146.23 L 198.982 146.23 L 198.982 143.34 L 201.812 143.34 L 201.812 146.23 ZM 212.913 164.67 L 205.763 164.67 L 205.763 162.95 L 207.983 162.56 L 207.983 145.46 L 205.763 145.08 L 205.763 143.34 L 210.683 143.34 L 210.683 162.56 L 212.913 162.95 L 212.913 164.67 ZM 234.165 158.3 L 222.475 163.48 L 222.475 160.8 L 230.645 157.55 L 231.795 157.31 L 231.795 157.23 L 230.645 156.96 L 222.475 153.76 L 222.475 151.09 L 234.165 156.26 L 234.165 158.3 Z" transform="matrix(1, 0, 0, 1, 0, 0)" style="fill: rgb(51, 51, 51); white-space: pre;"/>
</svg>