<svg xmlns="http://www.w3.org/2000/svg" viewBox="0 0 799.34 218.04"><defs></defs><title>1109_P6 logo es FINAL logo only</title><path class="cls-1" d="M804.67,112.8a59.09,59.09,0,0,0-36.59-6.16l29.18-55.06H769.74l-45,85.78a59.12,59.12,0,1,0,79.92-24.56Zm3.24,68.63h0a35,35,0,1,1-41.2-49.84A35.25,35.25,0,0,1,777,130a35,35,0,0,1,30.88,51.4Z" transform="translate(-36.76 -51.58)"/><path d="M491,191.34a37,37,0,0,1-62.55-18.52h92.79a57,57,0,1,0-5.79,18.52Zm-26.28-63.13a37,37,0,0,1,35.68,27.18H429.05A37,37,0,0,1,464.72,128.21Z" transform="translate(-36.76 -51.58)"/><path d="M701.67,200.44c-1,.06-1.91.09-2.84.09-14.48,0-21.82-7.69-21.82-22.86v-50h25.31V108.1H677V84.29H656.78v93.38c0,26,14.8,42.08,38.63,42.08a54.91,54.91,0,0,0,6.44-.39l.91-.1V200.37Z" transform="translate(-36.76 -51.58)"/><path d="M367,234.58c0,10.1-4.67,14.54-14.52,14.12l-1.07,0v19.12l.95.07c1.34.09,2.63.14,3.88.14,19.83,0,31.2-12.33,31.2-33.83v-126H367Z" transform="translate(-36.76 -51.58)"/><path d="M377.17,63.8a13,13,0,1,0,13,13A13,13,0,0,0,377.17,63.8Z" transform="translate(-36.76 -51.58)"/><path d="M286.87,108a57.07,57.07,0,1,0,57.07,57.07A57.08,57.08,0,0,0,286.87,108Zm0,94.12a37,37,0,1,1,37-37A37.05,37.05,0,0,1,286.87,202.16Z" transform="translate(-36.76 -51.58)"/><path d="M225,108.3a62.65,62.65,0,0,0-7.44-.45c-28.51,0-46.94,19.18-46.94,48.86v62.47h20.23v-62.9c0-18.48,10.61-29.08,29.1-29.08,1.55,0,3.18.08,4.83.23l1.12.1V108.41Z" transform="translate(-36.76 -51.58)"/><path d="M93.84,108a57.08,57.08,0,0,0-57.08,57.07h0V269.63H56.57V208.27A57.05,57.05,0,1,0,93.84,108Zm0,94.12a37,37,0,1,1,37-37A37.05,37.05,0,0,1,93.84,202.16Z" transform="translate(-36.76 -51.58)"/><path d="M636.49,205.5,622.8,191.68l0,0-.32-.32a37,37,0,0,1-26.11,10.77h-.05a37,37,0,0,1,0-74.09h.05a36.9,36.9,0,0,1,26,10.63l14.09-14.22a56.85,56.85,0,0,0-40-16.44h-.05a57.07,57.07,0,0,0,0,114.14h.05a56.89,56.89,0,0,0,40.2-16.57l-.08-.07Z" transform="translate(-36.76 -51.58)"/></svg>
